<svg xmlns="http://www.w3.org/2000/svg" width="190.267" height="64.164"><g data-name="Group 1" fill="#fff"><path data-name="Path 1" d="M189.748 32.378a1.952 1.952 0 00-1.509-.648 2.38 2.38 0 00-2.407 2.213l-1.538 17.579h-2.171a1.868 1.868 0 01-1.677-.647 2.469 2.469 0 01-.34-1.609l1.342-15.325a1.992 1.992 0 00-2.019-2.213 2.287 2.287 0 00-1.6.626 2.358 2.358 0 00-.766 1.588l-1.344 15.366a6.338 6.338 0 001.127 4.3 5.547 5.547 0 004.893 2.3h2.171a2.214 2.214 0 01-.9 1.754 2.5 2.5 0 01-1.5.418h-2.172a2.459 2.459 0 00-2.406 2.214 1.992 1.992 0 002.019 2.212h2.214a7.481 7.481 0 004.433-1.5 6.718 6.718 0 002.742-5.1l1.918-21.965a1.969 1.969 0 00-.511-1.566m-15.7 0a1.949 1.949 0 00-1.509-.648 2.378 2.378 0 00-2.406 2.213l-1.344 15.366a2.269 2.269 0 01-.91 1.8 2.5 2.5 0 01-1.5.417h-2.171l1.541-17.582a1.994 1.994 0 00-2.02-2.213 2.288 2.288 0 00-1.6.626 2.36 2.36 0 00-.765 1.588l-2.305 26.349a1.99 1.99 0 00.487 1.587 1.925 1.925 0 001.49.626 2.462 2.462 0 002.407-2.212l.384-4.386h2.212a1.9 1.9 0 011.688.752 2.2 2.2 0 01.29 1.461l-.19 2.172a1.994 1.994 0 002.019 2.212 2.461 2.461 0 002.407-2.212l.194-2.214a6.79 6.79 0 00-.2-2.255 5.607 5.607 0 00-1.008-2.088 7.391 7.391 0 001.362-1.962 7.316 7.316 0 00.612-2.463l1.346-15.368a1.963 1.963 0 00-.511-1.566m-16.7 1.649a5.552 5.552 0 00-4.893-2.3 6.72 6.72 0 00-5.338 2.3 7.293 7.293 0 00-1.837 4.3l-1.922 21.964a1.99 1.99 0 00.487 1.587 1.927 1.927 0 001.49.626 2.461 2.461 0 002.407-2.212l1.922-21.964a2.7 2.7 0 01.638-1.566 2.212 2.212 0 011.769-.647 1.905 1.905 0 011.688.751 2.211 2.211 0 01.289 1.462l-1.922 21.964a1.994 1.994 0 002.02 2.212 2.459 2.459 0 002.403-2.209l1.922-21.964a6.238 6.238 0 00-1.126-4.3m-15.3 4.927a2.009 2.009 0 00-1.49-.626 2.341 2.341 0 00-1.641.626 2.308 2.308 0 00-.761 1.545l-1.732 19.793a1.992 1.992 0 002.019 2.212 2.462 2.462 0 002.407-2.212l1.732-19.793a1.876 1.876 0 00-.533-1.545m.6-6.576a1.952 1.952 0 00-1.509-.648 2.378 2.378 0 00-2.406 2.213 1.868 1.868 0 00.533 1.544 2 2 0 001.489.627 2.335 2.335 0 001.642-.627 2.3 2.3 0 00.762-1.544 1.963 1.963 0 00-.511-1.566m-8.681 19.771a2.006 2.006 0 00-1.49-.627 2.335 2.335 0 00-1.641.627 2.3 2.3 0 00-.762 1.545l-.194 2.212a2.53 2.53 0 01-.545 1.462 2.333 2.333 0 01-1.816.71 1.9 1.9 0 01-1.678-.627 2.375 2.375 0 01-.342-1.587l1.151-13.153h4.384a2.461 2.461 0 002.407-2.214 1.876 1.876 0 00-.533-1.545 2.008 2.008 0 00-1.49-.626h-4.384l.384-4.384a1.994 1.994 0 00-2.02-2.213 2.286 2.286 0 00-1.6.626 2.357 2.357 0 00-.766 1.588l-1.922 21.963a6.342 6.342 0 001.127 4.3 5.547 5.547 0 004.893 2.3 6.751 6.751 0 005.34-2.338 7.231 7.231 0 001.835-4.26l.194-2.212a1.874 1.874 0 00-.533-1.545m-14.95-18.122a5.553 5.553 0 00-4.893-2.3 6.716 6.716 0 00-5.336 2.3 7.294 7.294 0 00-1.839 4.3l-1.922 21.964a1.991 1.991 0 00.488 1.587 1.924 1.924 0 001.49.626 2.459 2.459 0 002.406-2.212l1.922-21.964a2.7 2.7 0 01.638-1.566 2.212 2.212 0 011.769-.647 1.9 1.9 0 011.688.751 2.211 2.211 0 01.29 1.462l-.19 2.171a1.992 1.992 0 002.024 2.211 2.461 2.461 0 002.407-2.214l.19-2.171a6.238 6.238 0 00-1.127-4.3M97.936 57.369a2.333 2.333 0 01-1.817.71 1.9 1.9 0 01-1.677-.627 2.37 2.37 0 01-.342-1.587l.957-10.941a2.694 2.694 0 01.638-1.566 2.212 2.212 0 011.768-.646h2.172l-1.154 13.194a2.531 2.531 0 01-.545 1.462m4.62-24.177a6.151 6.151 0 00-4.132-1.461h-2.212a2.38 2.38 0 00-2.407 2.213 1.868 1.868 0 00.533 1.544 2 2 0 001.49.627h2.212a2.24 2.24 0 011.48.5 1.889 1.889 0 01.5 1.712h-2.172a6.713 6.713 0 00-5.337 2.3 7.292 7.292 0 00-1.837 4.3l-.961 10.982a6.347 6.347 0 001.126 4.3 5.55 5.55 0 004.893 2.3 6.752 6.752 0 005.341-2.338 7.239 7.239 0 001.834-4.26l1.538-17.579a5.654 5.654 0 00-1.888-5.137m-14.938.835a5.553 5.553 0 00-4.893-2.3 7.6 7.6 0 00-2.541.4 6.537 6.537 0 00-2.021 1.149 5.238 5.238 0 00-1.8-1.149 6.834 6.834 0 00-2.451-.4 6.716 6.716 0 00-5.337 2.3 7.293 7.293 0 00-1.837 4.3l-1.922 21.964a1.992 1.992 0 002.019 2.212 2.461 2.461 0 002.407-2.212l1.922-21.964a2.738 2.738 0 01.619-1.586 2.175 2.175 0 011.745-.627 1.952 1.952 0 011.731.751 2.212 2.212 0 01.289 1.462l-1.922 21.964a1.986 1.986 0 00.488 1.587 1.923 1.923 0 001.489.626 2.462 2.462 0 002.407-2.212l1.922-21.964a2.7 2.7 0 01.638-1.566 2.212 2.212 0 011.769-.647 1.9 1.9 0 011.688.751 2.211 2.211 0 01.289 1.462l-1.922 21.964a1.994 1.994 0 002.02 2.212 2.461 2.461 0 002.407-2.212l1.922-21.964a6.239 6.239 0 00-1.127-4.3"/><path data-name="Path 2" d="M190.264 25.828a.337.337 0 00-.137-.308l-2.863-2.191 2.486-1.558a.413.413 0 00.212-.32c.024-.274-.1-.41-.387-.41a.5.5 0 00-.26.075l-2.9 1.817.371-4.235q.035-.4-.389-.4a.4.4 0 00-.458.4l-.624 7.137q-.035.4.387.4a.4.4 0 00.459-.4l.168-1.927.173-.1 3.046 2.343a.379.379 0 00.252.1.412.412 0 00.466-.416m-8.435-4.787a.4.4 0 00-.458.389l-.387 4.426q-.034.389.39.388a.4.4 0 00.457-.388l.29-3.32a.707.707 0 01.284-.506.913.913 0 01.585-.2h.956a.4.4 0 00.458-.4c.023-.259-.108-.389-.389-.389h-.953a1.818 1.818 0 00-.865.212.348.348 0 00-.364-.212m-3.312 3.708a.71.71 0 01-.283.506.913.913 0 01-.585.2h-3.005a.774.774 0 01-.549-.2.589.589 0 01-.2-.506.731.731 0 01.284-.512.892.892 0 01.586-.212h3.81zm.293 1.5a.4.4 0 00.457-.388l.29-3.32a1.256 1.256 0 00-.399-1.078 1.554 1.554 0 00-1.129-.433h-3.005a.4.4 0 00-.458.389c-.023.264.107.4.389.4h3.005a.782.782 0 01.549.2.588.588 0 01.194.506l-.062.71h-3.81a1.829 1.829 0 00-1.207.438 1.524 1.524 0 00-.577 1.065 1.257 1.257 0 00.395 1.059 1.553 1.553 0 001.127.437h3.005a1.835 1.835 0 00.865-.211.342.342 0 00.364.211m-8.113-1.529a.746.746 0 01-.284.522.89.89 0 01-.586.216h-3a.758.758 0 01-.549-.212.615.615 0 01-.193-.525l.187-2.137a.737.737 0 01.285-.52.9.9 0 01.586-.212h3.005a.766.766 0 01.548.212.614.614 0 01.193.52zm-4.719-3.674a.4.4 0 00-.459.4l-.612 7q-.035.4.389.4a.4.4 0 00.458-.4l.208-2.384a1.6 1.6 0 00.79.191h3.013a1.8 1.8 0 001.206-.447 1.572 1.572 0 00.58-1.089l.187-2.137a1.31 1.31 0 00-.39-1.09 1.524 1.524 0 00-1.128-.447h-3.005a1.774 1.774 0 00-.866.219.339.339 0 00-.363-.219m-6.851 0a.4.4 0 00-.458.389l-.387 4.426q-.034.389.39.388a.4.4 0 00.457-.388l.29-3.32a.707.707 0 01.284-.506.913.913 0 01.584-.2h.956a.4.4 0 00.459-.4q.034-.389-.39-.389h-.956a1.818 1.818 0 00-.864.212.349.349 0 00-.364-.212m-3.122.977a.593.593 0 01.208.519.717.717 0 01-.284.509.905.905 0 01-.585.207h-3.811l.063-.717a.709.709 0 01.283-.506.919.919 0 01.585-.2h3.005a.775.775 0 01.536.191m.447 1.6a1.514 1.514 0 00.608-1.085 1.259 1.259 0 00-.392-1.062 1.558 1.558 0 00-1.13-.433h-3.005a1.83 1.83 0 00-1.205.433 1.51 1.51 0 00-.578 1.062l-.194 2.212a1.254 1.254 0 00.4 1.059 1.548 1.548 0 001.125.437h3a.4.4 0 00.458-.388c.023-.265-.107-.4-.389-.4h-3a.778.778 0 01-.549-.2.588.588 0 01-.194-.506l.063-.717h3.81a1.845 1.845 0 001.177-.41m-6.9-2.185q.035-.4-.388-.4h-1.08l.1-1.141q.035-.4-.388-.4a.4.4 0 00-.459.4l-.1 1.141h-.259a.4.4 0 00-.457.4q-.035.4.388.4h.259l-.352 4.017q-.034.4.39.4a.4.4 0 00.457-.4l.352-4.017h1.08a.4.4 0 00.457-.4m-9.153-.4a.4.4 0 00-.458.389l-.387 4.426q-.034.389.39.388a.4.4 0 00.457-.388l.29-3.32a.706.706 0 01.284-.506.913.913 0 01.585-.2h1.979a.778.778 0 01.549.2.585.585 0 01.2.506l-.291 3.32q-.034.389.389.388a.4.4 0 00.458-.388l.29-3.32a1.256 1.256 0 00-.392-1.062 1.556 1.556 0 00-1.131-.433h-1.979a1.864 1.864 0 00-.865.2.351.351 0 00-.365-.2m-2.692 4.808l.386-4.412q.035-.4-.388-.4a.4.4 0 00-.459.4l-.386 4.412c-.023.264.107.4.389.4a.4.4 0 00.458-.4m.656-6.017c.03-.346-.139-.52-.508-.52a.524.524 0 00-.6.52q-.045.519.508.519a.523.523 0 00.6-.519m-2.538 1.578c.022-.255-.109-.383-.4-.383a.423.423 0 00-.4.24l-1.981 3.585-1.353-3.585a.354.354 0 00-.359-.267.455.455 0 00-.418.267l-1.967 3.585-1.359-3.573a.348.348 0 00-.361-.24q-.43 0-.463.383a.325.325 0 00.026.164l1.661 4.426a.366.366 0 00.366.273.449.449 0 00.406-.273l1.98-3.586 1.34 3.586a.376.376 0 00.371.273.448.448 0 00.406-.273l2.45-4.433a.513.513 0 00.041-.157"/><path data-name="Path 3" d="M52.072 9.648a4.361 4.361 0 11-4.361-4.361 4.361 4.361 0 014.361 4.361m-24.7-6.023S5.329 11.425.806 26.479c8.769-4.657 19.876-7.448 31.97-7.448a69.948 69.948 0 0129.575 6.251c1.462-13.617-1.44-33.517-34.979-21.656"/><path data-name="Path 4" d="M48.259 38.999s-16.817-13.942-14.788-5.191c0 0 2.03 8.75 11.453 18.28a32.334 32.334 0 005.073 4.023 43.784 43.784 0 006.122-9.609 65.945 65.945 0 00-7.861-7.5M-.001 32.076c.032 4.089 1.4 8.608 4.645 13.546a28.69 28.69 0 007.372-6.359c10.83-13.727-8.369-8.362-8.369-8.362a46.938 46.938 0 00-3.648 1.175m35.945 30.435a64.378 64.378 0 00-8.723-19.957c-5.551-7.665-12.027 1.983-12.027 1.983a87.9 87.9 0 00-4.852 8.119c.314.327.623.655.954.985 0 0 11.891 11.888 24.857 10.392a8.824 8.824 0 00-.21-1.522m25.385-30.928a239.88 239.88 0 00-3.268-.816s-13.613-3.3-3.7 5.155c0 0 2.76 2.352 4.649 3.643a78.776 78.776 0 002.318-7.983"/></g></svg>